<?xml version="1.0" encoding="UTF-8"?>
<svg id="Layer_1" data-name="Layer 1" xmlns="http://www.w3.org/2000/svg" viewBox="0 0 450 300">
  <defs>
    <style>
      .cls-1 {
        fill: #052460;
        stroke-width: 0px;
      }
    </style>
  </defs>
  <path class="cls-1" d="m144.36,127.76v.1c-.67-.06-1.36-.1-2.05-.1s-1.37.04-2.04.1v-.1c-10.74.98-19.21,9.46-20.2,20.2h.1c-.06.67-.1,1.36-.1,2.05s.04,1.37.1,2.04h-.09c.98,10.74,9.45,19.21,20.2,20.2v-.09c.67.06,1.35.1,2.04.1s1.37-.04,2.05-.1v.09c10.74-.98,19.21-9.45,20.2-20.2h-.1c.06-.67.1-1.35.1-2.04s-.04-1.37-.1-2.05h.1c-.98-10.74-9.46-19.22-20.2-20.2Z"/>
  <path class="cls-1" d="m232.31,149.99c0-11.47-1.88-21.94-5.55-31.44-1.32-3.42-2.87-6.72-4.67-9.89h101.81v-.04s22.73,0,22.73,0l3.42-2.99,3.03,3.04.45.44h5.2v3.73h3.54v13.44h-3.85v2.69h3.18v7.89h-3.12v5.74h-20.55v.03h-20.01v-.05h-29.18c-4.62,20.96-26.51,19.73-26.51,19.73l-24.63,70.56h38.36v-46.17h35.28l31.97,46.17h41.2l-37.18-53.28c10.9-4.73,19.3-11.56,25.23-20.48,5.91-8.92,8.87-19.53,8.87-31.85s-2.92-22.97-8.76-31.97c-5.83-9-14.17-15.94-24.98-20.83-10.81-4.9-23.56-7.34-38.25-7.34h-101.63c-8.01,4.55-12.8,12.27-12.8,12.27-4.99-4.99-14.02-9.43-20.71-12.27h-108.58v165.76h75.3c18,0,33.9-3.43,47.71-10.3,13.82-6.87,24.54-16.54,32.2-29.01,5.27-8.58,8.68-18.16,10.33-28.68.74-4.77,1.16-9.72,1.16-14.89Zm-89.84,50.94c-28.13,0-50.93-22.8-50.93-50.93s22.8-50.94,50.93-50.94,50.93,22.81,50.93,50.94-22.8,50.93-50.93,50.93Z"/>
</svg>